<?xml version="1.0" standalone="no"?>
<!DOCTYPE svg PUBLIC "-//W3C//DTD SVG 20010904//EN"
 "http://www.w3.org/TR/2001/REC-SVG-20010904/DTD/svg10.dtd">
<svg version="1.0" xmlns="http://www.w3.org/2000/svg"
 width="16.000000pt" height="16.000000pt" viewBox="0 0 16.000000 16.000000"
 preserveAspectRatio="xMidYMid meet">
<metadata>
Created by potrace 1.11, written by Peter Selinger 2001-2013
</metadata>
<g transform="translate(0.000000,16.000000) scale(0.001584,-0.001584)"
fill="#000000" stroke="none">
<path d="M2903 8533 c29 -27 82 -73 117 -103 35 -30 78 -68 95 -85 17 -16 47
-42 66 -56 18 -15 45 -37 59 -51 14 -13 67 -62 119 -108 112 -100 94 -84 256
-235 396 -370 915 -898 915 -930 0 -8 6 -15 13 -15 12 0 48 -37 154 -159 21
-25 47 -55 58 -67 11 -12 38 -43 60 -70 22 -26 45 -52 50 -58 46 -49 285 -360
285 -371 0 -8 4 -15 9 -15 20 0 264 -354 383 -555 217 -368 375 -750 423
-1024 3 -19 8 -37 10 -41 2 -3 6 -28 9 -56 3 -27 9 -74 12 -103 9 -74 9 -272
0 -346 -40 -328 -184 -615 -433 -859 -100 -99 -119 -116 -132 -116 -6 0 -11
-4 -11 -10 0 -5 -6 -10 -13 -10 -7 0 -18 -9 -24 -20 -18 -27 -249 -178 -368
-239 -165 -85 -414 -191 -570 -243 -318 -104 -737 -204 -1060 -253 -93 -14
-253 -36 -295 -41 -25 -3 -99 -11 -165 -19 -66 -8 -160 -17 -210 -20 -49 -3
-106 -8 -125 -10 -19 -3 -84 -7 -145 -10 -60 -3 -144 -7 -185 -10 -41 -3 -150
-6 -242 -7 -93 -1 -168 -3 -168 -4 0 -2 94 -33 195 -64 190 -58 926 -215 1385
-294 85 -15 166 -29 180 -32 124 -21 684 -104 800 -118 25 -3 97 -12 160 -20
63 -9 142 -18 175 -21 33 -4 87 -11 120 -16 33 -5 67 -10 75 -10 39 -1 274
-21 290 -24 10 -2 62 -6 116 -10 55 -3 110 -8 124 -10 14 -2 75 -7 135 -10 61
-3 124 -8 140 -10 157 -19 1094 -27 1435 -12 102 5 187 10 190 12 3 1 46 6 95
9 50 4 101 9 115 11 14 2 54 7 90 10 117 11 414 56 450 69 8 3 33 8 54 11 152
22 502 120 661 185 58 24 71 29 148 65 43 19 80 35 82 35 2 0 38 20 79 45 42
25 81 45 85 45 5 0 11 4 13 8 2 4 21 19 43 32 22 13 45 28 50 32 134 103 259
223 322 309 22 30 46 59 54 65 43 33 221 84 297 84 23 0 42 3 42 7 0 4 -10 21
-22 38 -22 33 -73 68 -144 101 -26 12 -57 40 -83 74 -52 69 -158 172 -236 232
-186 140 -479 262 -754 313 -47 8 -85 16 -86 18 -1 1 -21 63 -45 137 -24 74
-53 159 -66 188 -13 29 -23 55 -23 57 0 3 -10 27 -21 53 -12 26 -30 67 -40 92
-36 89 -139 288 -225 435 -203 347 -466 702 -773 1045 -86 96 -485 497 -578
580 -145 131 -210 188 -284 251 -160 135 -199 167 -240 199 -25 19 -47 37 -50
40 -24 25 -421 329 -525 402 -120 84 -211 149 -222 158 -17 14 -512 342 -610
405 -332 210 -860 514 -1258 722 -264 138 -891 443 -912 443 -2 0 21 -21 50
-47z"/>
<path d="M95 7284 c-11 -3 -30 -7 -42 -10 -13 -2 -23 -11 -23 -18 0 -38 173
-100 436 -155 104 -22 331 -70 504 -106 173 -37 378 -80 455 -96 222 -47 556
-118 730 -154 166 -35 416 -87 735 -155 203 -43 647 -137 835 -176 66 -14 140
-29 165 -35 162 -36 270 -56 270 -50 0 21 -238 339 -300 401 -3 3 -23 25 -44
50 -75 86 -181 204 -231 256 -57 60 -26 53 -365 74 -91 5 -194 12 -230 15 -36
2 -108 7 -160 10 -52 3 -120 8 -150 10 -30 2 -102 7 -160 10 -58 3 -130 8
-160 10 -30 3 -104 7 -165 10 -60 3 -137 7 -170 10 -33 3 -100 7 -150 10 -49
3 -126 7 -170 10 -44 3 -116 7 -160 10 -44 3 -111 7 -150 10 -38 2 -117 7
-175 10 -58 3 -136 7 -175 10 -142 9 -233 15 -345 21 -63 3 -131 7 -150 10
-63 6 -434 13 -455 8z"/>
<path d="M2178 6003 c-20 -2 -42 -10 -48 -18 -16 -20 32 -48 135 -80 44 -14
87 -28 95 -32 8 -3 19 -5 24 -4 5 1 23 -3 40 -9 17 -7 45 -14 61 -17 17 -3
118 -27 225 -53 107 -27 274 -67 370 -90 96 -23 181 -44 188 -46 7 -2 14 -4
17 -5 2 0 37 -10 77 -20 40 -11 84 -22 98 -24 26 -4 524 -127 595 -146 22 -6
51 -13 65 -16 14 -2 70 -15 125 -29 55 -14 109 -27 121 -30 11 -2 132 -31 268
-64 137 -34 250 -59 253 -56 18 18 -343 630 -377 640 -8 3 -107 8 -219 11
-113 3 -207 8 -210 9 -3 2 -94 7 -201 10 -107 4 -204 9 -215 11 -11 2 -103 7
-204 10 -101 3 -193 7 -205 10 -12 2 -112 7 -223 10 -111 3 -208 7 -215 10 -7
2 -85 6 -173 9 -88 3 -221 7 -295 9 -74 3 -152 3 -172 0z"/>
<path d="M3472 5002 c-63 -19 1 -52 238 -120 96 -28 216 -62 265 -77 50 -14
189 -55 310 -90 360 -104 737 -213 788 -229 26 -8 49 -10 53 -5 7 12 3 111 -8
184 -8 56 -60 227 -76 251 -4 7 -64 14 -157 18 -82 4 -168 9 -190 11 -22 2
-94 7 -160 10 -66 3 -145 8 -175 10 -30 3 -98 7 -150 10 -52 2 -140 7 -195 10
-286 18 -517 25 -543 17z"/>
</g>
</svg>
