<?xml version="1.0" encoding="utf-8"?>
<!-- Generator: Adobe Illustrator 20.1.0, SVG Export Plug-In . SVG Version: 6.00 Build 0)  -->
<svg version="1.1" id="Слой_1" xmlns="http://www.w3.org/2000/svg" xmlns:xlink="http://www.w3.org/1999/xlink" x="0px" y="0px"
	 viewBox="0 0 771.8 543" enable-background="new 0 0 771.8 543" xml:space="preserve">
<path fill="#2575A5" d="M149.7,484.3c4.7,0,9.5,0,14.2,0c16.2,0.2,32.4-1.1,48.6-2.5c21.6-1.9,43.2-4.7,64.6-8.7
	c28.6-5.3,56.6-12.4,83.6-23.3c25.2-10.2,48.8-23.3,67.9-43.1c16.2-16.9,26.5-36.7,29.6-60.2c2.9-21.8-0.5-42.9-7.2-63.5
	c-7.8-24-19.6-46.2-33.1-67.4c-18.5-29.1-40.1-55.9-63.1-81.5c-22.3-24.8-45.8-48.4-70.1-71.2c-18.8-17.7-38-34.9-57.7-51.7
	c-0.7-0.6-1.6-1.1-2.4-1.7c0.2-0.3,0.5-0.6,0.7-0.9c3.3,1.4,6.6,2.7,9.8,4.2c48.5,22.7,95.6,48.1,141.2,76.3
	C418,114.9,458.1,142.9,496,174c30.9,25.4,60.1,52.7,86.2,83c26.3,30.5,49.2,63.3,65.9,100.2c5.4,12,10.2,24.3,13.9,36.9
	c0.9,3.1,2.4,4.1,5.5,4.7c26,4.8,50,13.9,69.2,32.9c1.3,1.3,2.7,2.7,3.8,4.2c3.9,5.4,8.3,10.1,14.9,12.3c1.1,0.4,2.2,1.3,3,2.1
	c1.6,1.6,4.6,3.1,3.7,5.5c-0.5,1.5-3.6,0.3-5.5,0.6c-6.6,0.9-12.8,3-18.8,5.8c-1,0.4-1.5,1.2-2.1,2c-13.4,18.7-31.5,31.3-52,40.9
	c-20.6,9.5-42.2,15.5-64.4,19.7c-14.4,2.8-28.9,4.8-43.5,6.4c-12.1,1.3-24.4,1.7-36.6,2.5c-14.9,1-29.7,0.7-44.6,0.8
	c-16.9,0.1-33.7-1-50.5-1.7c-13.2-0.5-26.4-1.6-39.5-2.9c-17.6-1.7-35.1-3.5-52.6-5.7c-21.3-2.7-42.5-5.7-63.7-9.1
	c-25.6-4.1-51-8.8-76.3-14.2c-19.8-4.2-39.5-8.4-58.8-14.4c-1.1-0.3-2.2-0.8-3.3-1.2C149.6,485,149.6,484.6,149.7,484.3z"/>
<path fill="#113659" d="M320.1,176.3c-7.1-1.5-14.1-2.8-21.1-4.3c-22-4.6-43.9-9.3-65.9-14c-21.8-4.6-43.7-9.2-65.6-13.7
	c-23.4-4.9-46.8-9.8-70.3-14.8c-19.3-4.1-38.6-8.2-57.9-12.3c-7.9-1.6-15.6-3.7-23-6.8c-0.8-0.3-1.6-0.7-2.3-1.2
	c-1.2-0.8-3.2-1.3-2.8-2.9c0.4-1.5,2.3-1.4,3.8-1.6c11.2-1.7,22.4-0.1,33.5,0.6c4.7,0.3,9.5,0.5,14.2,0.8
	c18.9,1.3,37.8,2.1,56.7,3.2c16.4,0.9,32.8,2,49.3,3c16,1,32.1,2,48.1,3c15.3,1,30.6,1.9,45.9,3c3.1,0.2,6.2,0.8,9.3,0.7
	c1.2-0.1,2.1,0.5,2.9,1.4c15.4,16.8,31,33.5,43.7,52.6C319.4,173.8,320.1,174.7,320.1,176.3z"/>
<path fill="#E58722" d="M375.5,256.3c-9.4-2.3-18.1-4.4-26.9-6.6c-30-7.3-60.1-14.6-90.1-22c-26.1-6.5-52.4-12.4-78.4-19.5
	c-3.4-0.9-6.7-2-9.7-3.8c-0.8-0.5-2.2-0.8-1.9-2s1.6-1.6,2.7-1.7c2.6-0.2,5.2-0.6,7.8-0.5c11.7,0.4,23.4,0.9,35.2,1.5
	c13.7,0.6,27.4,1.3,41.1,2c18.6,0.9,37.1,1.8,55.7,2.8c11.3,0.6,22.7,1.1,34,1.6c1.9,0.1,3.3,0.5,4.3,2.2
	c9,14.2,17.8,28.5,25.3,43.6C374.9,254.4,375,255,375.5,256.3z"/>
<path fill="#2575A5" d="M277.4,275c14.9,1,29.8,2,44.8,2.8c10.8,0.6,21.7,1.1,32.5,1.7c10,0.5,19.9,1.1,29.9,1.5
	c1.4,0.1,2.3,0.6,2.9,1.9c3.6,9.1,6,18.4,6.1,28.2c0,3.2-0.8,4-4.2,3c-37.5-11-75-21.8-112.5-32.7c-2.8-0.8-5.7-1.8-8.3-3.3
	c-0.6-0.3-1.3-0.6-1.2-1.3c0.1-0.9,0.9-1,1.6-1.2C271.6,275.1,274.5,274.9,277.4,275z"/>
</svg>
