<?xml version="1.0" encoding="utf-8"?>
<!-- Generator: Adobe Illustrator 20.1.0, SVG Export Plug-In . SVG Version: 6.00 Build 0)  -->
<svg version="1.1" id="Слой_1" xmlns="http://www.w3.org/2000/svg" xmlns:xlink="http://www.w3.org/1999/xlink" x="0px" y="0px"
	 viewBox="0 0 1140 172.2" enable-background="new 0 0 1140 172.2" xml:space="preserve">
<path fill="#2C2E37" d="M919.2,169.4c-18.8,0-37.2,0-55.6,0c-1.3,0-2.4,0.3-3.1-1.7c-8.2-24.3-17.2-48.4-24.9-72.9
	c-0.4-1.4,0.3-3.1-1.7-4.5c-1.1,5.5-2.2,10.7-3.2,15.9c-3.8,20.1-7.6,40.1-11.4,60.2c-0.4,2.1-1.2,3.1-3.8,3.1
	c-13.6-0.2-27.2-0.2-40.9,0c-2.9,0-3.4-0.6-2.8-3.6c4-20,7.8-40.1,11.6-60.1c0.9-5,1.8-9.9,2.8-14.8c-0.6-0.4-1-0.2-1.3,0.3
	c-13.9,21.6-29.9,41.6-44.7,62.6c-3.2,4.5-6.4,8.9-9.6,13.3c-1,1.3-1.8,2.4-3.8,2.4c-18.2-0.1-36.5-0.1-54.7-0.1
	c-0.2,0-0.4-0.2-0.9-0.4c6.1-7.6,12.2-15.1,18.2-22.7c16.5-20.5,33-41,49.6-61.4c1.6-1.9,1.8-3.4,0.9-5.6
	c-10.4-24.2-20.7-48.4-31-72.7c-0.5-1.1-1.4-2.1-0.9-3.7c14.8,0,29.6,0,44.5,0c3.8,0,8.6-1.6,11.2,0.7c2.4,2.1,2.6,6.7,3.7,10.2
	c6.6,21.3,13.2,42.7,19.8,64.1c0.2,0.6,0,1.3,1.2,1.8c0.9-4.4,1.8-8.6,2.7-12.9c3.8-20.2,7.6-40.4,11.4-60.6
	c0.4-2.4,1.3-3.6,4.2-3.6c13.5,0.2,27,0.2,40.5,0c3,0,3.5,0.8,3,3.6c-4.7,24-9.4,48.1-14,72.1c-0.1,0.3,0.1,0.7,0.1,1.1
	c1,0.2,1.3-0.6,1.7-1.2c16.8-24.4,33.6-48.7,50.4-73.1c0.9-1.3,1.8-2.5,3.8-2.5c17.7,0.1,35.5,0.1,53.2,0.1c0.2,0,0.4,0.2,0.8,0.4
	c-7.4,9.1-14.7,18.2-22,27.3c-13.2,16.3-26.4,32.6-39.6,48.8c-1.5,1.9-1.9,3.4-0.8,5.9c11.5,27,22.9,54,34.3,81
	C918.3,167.3,918.7,168.2,919.2,169.4z"/>
<path fill="#2C2E37" d="M999.5,95.2c5.6-6.3,11.1-12.7,16.8-18.9c21.9-23.7,43.9-47.2,65.7-70.9c1.7-1.8,3.4-2.5,5.8-2.5
	C1101,3,1114.3,3,1127.5,3c1.2,0,2.5,0,3.8,0c-5.8,30.4-11.5,60.5-17.2,90.7c-4.7,24.5-9.5,49.1-14.1,73.6c-0.3,1.8-1.1,2.2-2.7,2.2
	c-13.9,0-27.7,0-41.6,0c-1.7,0-2.3-0.2-1.8-2.3c5.5-27.5,10.8-55.1,16.2-82.7c0.8-4.2,1.8-8.3,2.9-12.9c-2.8,1.3-3.7,3.6-5.2,5.3
	c-15.2,16.6-30.3,33.3-45.5,49.8c-12.4,13.5-24.9,27-37.3,40.5c-1.4,1.5-2.7,2.2-4.8,2.2c-12.5-0.1-25-0.1-37.5,0
	c-2.6,0-3.3-0.3-2.7-3.3c3.8-18.8,7.3-37.6,10.9-56.5c3.6-18.8,7.1-37.7,10.8-56.5c3.1-15.9,6.3-31.8,9.2-47.7
	c0.4-2.4,1.3-2.6,3.3-2.6c13.2,0.1,26.5,0.2,39.7-0.1c3.5-0.1,3.4,1.4,2.9,3.7c-2.2,11-4.4,22.1-6.6,33.1c-3.1,15.7-6.1,31.3-9.1,47
	c-0.5,2.8-1.3,5.5-2,8.2C999.2,95,999.3,95.1,999.5,95.2z"/>
<path fill="#2C2E37" d="M623.1,71.7c-5.4,6.8-11.3,13.2-17.1,19.6c-23.5,25.6-47,51.1-70.5,76.7c-0.8,0.9-1.5,1.5-2.8,1.5
	c-14,0-28,0-42.2,0c4.7-24.1,9.4-48,14-71.9c4.9-25.4,9.6-50.8,14.4-76.2c1-5.3,2-10.7,3-16c0.3-1.7,1.2-2.4,3.1-2.3
	c13.6,0.1,27.2,0.1,40.9,0c2.7,0,2.5,0.9,2.1,3.1c-4.5,22.8-8.7,45.7-13.1,68.5c-1.3,6.8-2.9,13.5-4.6,21.3c2.9-3.3,5.2-5.8,7.4-8.3
	c22.7-25.6,46.7-50,69.4-75.6c6.3-7.1,12.5-9.9,21.7-9.2c10.3,0.8,20.7,0.3,31.1,0.1c2.7,0,2.8,1.1,2.4,3.1
	c-6.9,35.7-13.9,71.4-20.8,107.1c-3.4,17.6-6.6,35.3-9.9,52.9c-0.4,2.3-1.1,3.7-4.2,3.6c-13.1-0.3-26.2-0.2-39.4,0
	c-2.9,0-3.2-1-2.8-3.4c5.2-26.8,10.4-53.7,15.7-80.5c0.9-4.5,2.1-9,3.1-13.5C623.6,72,623.4,71.9,623.1,71.7z"/>
<path fill="#2B2E37" d="M397.2,3c12,0,24-0.3,36,0.1c10.1,0.4,20.2,1.7,29.8,5.7c13.2,5.5,20.5,15.2,21.4,29.5
	c1.2,17.9-3.2,34.3-14.6,48.4c-11.6,14.4-27.2,22.4-45,26.6c-11.7,2.7-23.5,2.4-35.3,2.2c-2.9,0-3.8,1-4.3,3.6
	c-2.9,16.1-6,32.1-9,48.1c-0.3,1.5-0.9,2.3-2.7,2.3c-15.1-0.1-30.2-0.1-45.4,0c-1.9,0-2.3-0.5-1.9-2.4c7-36.2,13.9-72.4,20.8-108.6
	c3.4-17.7,7-35.4,10.3-53.2c0.4-2.4,1.4-2.4,3.1-2.4C372.7,3,385,2.9,397.2,3L397.2,3z M392.8,80.2c4.2,0,8.1,0,12.1,0
	c13.8-0.1,22.1-6.6,25.2-20c2.6-11.2-1.9-19.3-12.2-21.1c-4.6-0.8-9.4-1-14.1-0.9c-2.4,0-3.1,0.7-3.6,3.1
	C397.9,54.1,395.3,66.8,392.8,80.2z"/>
<path fill="#2C2E37" d="M140.4,121.8c-2.6,13.7-5.3,27.5-7.8,41.2c-0.3,1.6-1.1,2.1-2.2,2.4c-10.8,3.4-21.9,5.4-33.2,6.2
	c-8.5,0.6-17,0.8-25.4,0c-23.6-2.2-47.7-12.6-56.6-39.4c-4.2-12.8-4.3-25.8-2.1-39c3-18.4,9.7-35.3,20.9-50.2
	C50.7,20.8,72.9,7.3,100.2,2.1c20-3.8,39.9-2,59.6,2.3c1.9,0.4,3.1,1.1,2.6,3.5c-2.9,14.3-5.6,28.6-8.5,43.1
	c-13-7.8-27.1-9.4-41.5-8.2C90.9,44.6,73.3,60.3,68,81.6c-1.9,7.9-3.2,15.9-1.3,24c2.8,12.5,13.5,21.6,26.4,23.4
	c15.1,2.1,29.3-1,43.2-6.5c1.1-0.5,2.3-0.8,3.5-1.2C140,121.5,140.2,121.6,140.4,121.8z"/>
<path fill="#2B2E37" d="M177.7,41.9c2.3-12.1,4.5-24,6.7-35.8c0.5-2.5,1.5-3.2,4.1-3.2c45.6,0.1,91.2,0.1,136.8,0
	c2.5,0,3.9-0.2,3.1,3.5c-2.4,10.9-4.2,21.8-6.2,32.8c-0.4,2.4-1.7,2.8-3.8,2.8c-13.6-0.1-27.2,0.1-40.9-0.1c-2.9,0-3.6,1.2-4,3.4
	c-6.8,35.8-13.6,71.7-20.4,107.5c-0.9,4.9-2.1,9.7-2.9,14.6c-0.3,1.5-0.6,2.2-2.2,2.2c-15.4,0-30.7,0-46.1,0c-1.7,0-2.1-0.5-1.8-2.2
	c5.4-27.7,10.8-55.3,16.1-83c2.5-13.1,5-26.2,7.6-39.4c0.4-2.2,0-3-2.5-3C206.9,42,192.4,41.9,177.7,41.9z"/>
<path fill="#2C2E37" d="M139.8,121.3c0.2-0.1,0.5-0.2,0.7-0.3c-0.1,0.3-0.1,0.6-0.1,0.9C140.2,121.6,140,121.5,139.8,121.3z"/>
</svg>
