<?xml version="1.0" encoding="utf-8"?>
<!-- Generator: Adobe Illustrator 20.1.0, SVG Export Plug-In . SVG Version: 6.00 Build 0)  -->
<svg version="1.1" id="Layer_1" xmlns="http://www.w3.org/2000/svg" xmlns:xlink="http://www.w3.org/1999/xlink" x="0px" y="0px"
	 viewBox="0 0 512 512" style="enable-background:new 0 0 512 512;" xml:space="preserve">
<style type="text/css">
	.st0{fill:#FFFFFF;}
</style>
<g>
	<g>
		<path class="st0" d="M106.4,59.9c-23.3,0-42.2,18.9-42.2,42.2v77c0,4.4,3.6,8,8,8h68.4c4.4,0,8-3.6,8-8v-77
			C148.6,78.8,129.6,59.9,106.4,59.9z M106.4,75.9c11.6,0,21.5,7.6,24.9,18.2H81.4C84.8,83.5,94.7,75.9,106.4,75.9z M98.3,171H80.2
			v-60.9h18.2V171z M132.5,171h-18.2v-60.9h18.2V171z"/>
	</g>
</g>
<g>
	<g>
		<path class="st0" d="M89.3,230.9H46.5c-4.4,0-8,3.6-8,8v34.2c0,4.4,3.6,8,8,8h42.8c4.4,0,8-3.6,8-8v-34.2
			C97.3,234.5,93.7,230.9,89.3,230.9z M81.2,265.1H54.5v-18.2h26.7L81.2,265.1L81.2,265.1z"/>
	</g>
</g>
<g>
	<g>
		<path class="st0" d="M166.2,230.9h-42.8c-4.4,0-8,3.6-8,8v34.2c0,4.4,3.6,8,8,8h42.8c4.4,0,8-3.6,8-8v-34.2
			C174.2,234.5,170.6,230.9,166.2,230.9z M158.2,265.1h-26.7v-18.2h26.7V265.1z"/>
	</g>
</g>
<g>
	<g>
		<path class="st0" d="M89.3,324.9H46.5c-4.4,0-8,3.6-8,8v34.2c0,4.4,3.6,8,8,8h42.8c4.4,0,8-3.6,8-8V333
			C97.3,328.5,93.7,324.9,89.3,324.9z M81.2,359.1H54.5V341h26.7L81.2,359.1L81.2,359.1z"/>
	</g>
</g>
<g>
	<g>
		<path class="st0" d="M166.2,324.9h-42.8c-4.4,0-8,3.6-8,8v34.2c0,4.4,3.6,8,8,8h42.8c4.4,0,8-3.6,8-8V333
			C174.2,328.5,170.6,324.9,166.2,324.9z M158.2,359.1h-26.7V341h26.7V359.1z"/>
	</g>
</g>
<g>
	<g>
		<path class="st0" d="M499.7,144.3c4.4,0,8-3.6,8-8v-34.2c0-2.1-0.8-4.2-2.3-5.7L411.3,2.3c-3.1-3.1-8.2-3.1-11.3,0l-91.7,91.7
			H203.7L112,2.3c-3.1-3.1-8.2-3.1-11.3,0L6.6,96.4c-1.5,1.5-2.3,3.5-2.3,5.7v188.1c0,4.4,3.6,8,8,8c4.4,0,8-3.6,8-8V105.4l86-86
			l86,86V496h-35.3V477c19.5-3.8,34.2-20.9,34.2-41.4c0-23.3-18.9-42.2-42.2-42.2s-42.2,18.9-42.2,42.2c0,20.5,14.7,37.7,34.2,41.4
			V496H71.6V477c19.5-3.8,34.2-20.9,34.2-41.4c0-23.3-18.9-42.2-42.2-42.2c-23.3,0-42.2,18.9-42.2,42.2c0,20.5,14.7,37.7,34.2,41.4
			V496H20.3V333c0-4.4-3.6-8-8-8c-4.4,0-8,3.6-8,8v171c0,4.4,3.6,8,8,8h487.4c4.4,0,8-3.6,8-8V179c0-4.4-3.6-8-8-8c-4.4,0-8,3.6-8,8
			V496h-35.3V477c19.5-3.8,34.2-20.9,34.2-41.4c0-23.3-18.9-42.2-42.2-42.2s-42.2,18.9-42.2,42.2c0,20.5,14.7,37.7,34.2,41.4V496
			h-69.5V477c19.5-3.8,34.2-20.9,34.2-41.4c0-23.3-18.9-42.2-42.2-42.2s-42.2,18.9-42.2,42.2c0,20.5,14.7,37.7,34.2,41.4V496h-35.3
			V105.4l86-86l86,86v30.9C491.7,140.7,495.3,144.3,499.7,144.3z M37.4,435.6c0-14.4,11.7-26.2,26.2-26.2s26.2,11.7,26.2,26.2
			c0,14.4-11.7,26.2-26.2,26.2S37.4,450,37.4,435.6z M122.9,435.6c0-14.4,11.7-26.2,26.2-26.2s26.2,11.7,26.2,26.2
			c0,14.4-11.7,26.2-26.2,26.2S122.9,450,122.9,435.6z M303.6,496h-95.1V110.1h95.1V496z M422.2,435.6c0-14.4,11.7-26.2,26.2-26.2
			c14.4,0,26.2,11.7,26.2,26.2c0,14.4-11.7,26.2-26.2,26.2C434,461.8,422.2,450,422.2,435.6z M336.7,435.6
			c0-14.4,11.7-26.2,26.2-26.2c14.4,0,26.2,11.7,26.2,26.2c0,14.4-11.7,26.2-26.2,26.2S336.7,450,336.7,435.6z"/>
	</g>
</g>
<g>
	<g>
		<path class="st0" d="M405.6,59.9c-23.3,0-42.2,18.9-42.2,42.2v77c0,4.4,3.6,8,8,8h68.4c4.4,0,8-3.6,8-8v-77
			C447.9,78.8,428.9,59.9,405.6,59.9z M405.6,75.9c11.6,0,21.5,7.6,24.9,18.2h-49.9C384.1,83.5,394,75.9,405.6,75.9z M397.6,171
			h-18.2v-60.9h18.2V171z M431.8,171h-18.2v-60.9h18.2V171z"/>
	</g>
</g>
<g>
	<g>
		<path class="st0" d="M388.5,230.9h-42.8c-4.4,0-8,3.6-8,8v34.2c0,4.4,3.6,8,8,8h42.8c4.4,0,8-3.6,8-8v-34.2
			C396.6,234.5,393,230.9,388.5,230.9z M380.5,265.1h-26.7v-18.2h26.7V265.1z"/>
	</g>
</g>
<g>
	<g>
		<path class="st0" d="M465.5,230.9h-42.8c-4.4,0-8,3.6-8,8v34.2c0,4.4,3.6,8,8,8h42.8c4.4,0,8-3.6,8-8v-34.2
			C473.5,234.5,469.9,230.9,465.5,230.9z M457.5,265.1h-26.7v-18.2h26.7L457.5,265.1L457.5,265.1z"/>
	</g>
</g>
<g>
	<g>
		<path class="st0" d="M388.5,324.9h-42.8c-4.4,0-8,3.6-8,8v34.2c0,4.4,3.6,8,8,8h42.8c4.4,0,8-3.6,8-8V333
			C396.6,328.5,393,324.9,388.5,324.9z M380.5,359.1h-26.7V341h26.7V359.1z"/>
	</g>
</g>
<g>
	<g>
		<path class="st0" d="M465.5,324.9h-42.8c-4.4,0-8,3.6-8,8v34.2c0,4.4,3.6,8,8,8h42.8c4.4,0,8-3.6,8-8V333
			C473.5,328.5,469.9,324.9,465.5,324.9z M457.5,359.1h-26.7V341h26.7L457.5,359.1L457.5,359.1z"/>
	</g>
</g>
<g>
	<g>
		<path class="st0" d="M277.4,136.8h-42.8c-4.4,0-8,3.6-8,8V179c0,4.4,3.6,8,8,8h42.8c4.4,0,8-3.6,8-8v-34.2
			C285.4,140.4,281.8,136.8,277.4,136.8z M269.4,171h-26.7v-18.2h26.7V171z"/>
	</g>
</g>
<g>
	<g>
		<path class="st0" d="M277.4,230.9h-42.8c-4.4,0-8,3.6-8,8v34.2c0,4.4,3.6,8,8,8h42.8c4.4,0,8-3.6,8-8v-34.2
			C285.4,234.5,281.8,230.9,277.4,230.9z M269.4,265.1h-26.7v-18.2h26.7V265.1z"/>
	</g>
</g>
<g>
	<g>
		<path class="st0" d="M277.4,324.9h-42.8c-4.4,0-8,3.6-8,8v34.2c0,4.4,3.6,8,8,8h42.8c4.4,0,8-3.6,8-8V333
			C285.4,328.5,281.8,324.9,277.4,324.9z M269.4,359.1h-26.7V341h26.7V359.1z"/>
	</g>
</g>
<g>
	<g>
		<path class="st0" d="M277.4,419h-42.8c-4.4,0-8,3.6-8,8v34.2c0,4.4,3.6,8,8,8h42.8c4.4,0,8-3.6,8-8V427
			C285.4,422.6,281.8,419,277.4,419z M269.4,453.2h-26.7V435h26.7V453.2z"/>
	</g>
</g>
</svg>
