<?xml version="1.0" encoding="iso-8859-1"?>
<!-- Generator: Adobe Illustrator 19.0.0, SVG Export Plug-In . SVG Version: 6.00 Build 0)  -->
<svg xmlns="http://www.w3.org/2000/svg" xmlns:xlink="http://www.w3.org/1999/xlink" version="1.1" id="Layer_1" x="0px" y="0px" viewBox="0 0 511.991 511.991" style="enable-background:new 0 0 511.991 511.991;" xml:space="preserve" width="512px" height="512px">
<g>
	<g>
		<g>
			<path d="M469.319,213.335l-42.672-85.334h-63.998l0.016-21.336h64.061c5.891,0,10.656-4.773,10.656-10.664     s-4.766-10.663-10.656-10.663H85.405L0,170.664v234.675h42.733l21.296-21.124h1.156c5.016,24.233,26.484,42.436,52.218,42.436     s47.218-18.218,52.218-42.482h2.219c5,24.265,26.484,42.482,52.218,42.482c25.765,0,47.265-18.249,52.25-42.529l87.42-0.062     c4.984,24.312,26.483,42.592,52.264,42.592s47.297-18.312,52.25-42.623l43.593-0.031l0.156-147.661L469.319,213.335z      M394.586,149.336h18.89l31.984,63.999h-50.874V149.336z M362.649,149.336h10.594v63.999h-10.594V149.336z M117.404,405.339     c-17.656,0-31.999-14.375-31.999-31.999c0-17.656,14.343-32,31.999-32c17.641,0,32,14.344,32,32     C149.403,390.964,135.044,405.339,117.404,405.339z M224.058,405.339c-17.64,0-32-14.375-32-31.999c0-17.656,14.359-32,32-32     c17.656,0,32,14.344,32,32C256.057,390.964,241.714,405.339,224.058,405.339z M415.991,405.339     c-17.655,0-31.998-14.375-31.998-31.999c0-17.656,14.343-32,31.998-32c17.641,0,32,14.344,32,32     C447.991,390.964,433.632,405.339,415.991,405.339z M490.648,277.342h-0.002h-0.141v21.312v21.343v21.344v21.344h-22.249     c-4.938-24.344-26.469-42.688-52.266-42.688c-25.827,0-47.373,18.359-52.279,42.75l-87.357,0.031     c-4.906-24.406-26.453-42.781-52.296-42.781c-25.859,0-47.405,18.406-52.296,42.844H169.7     c-4.891-24.438-26.437-42.844-52.296-42.844c-25.89,0-47.452,18.438-52.312,42.891H64.03h-8.781l-6.234,6.172l-15.062,14.938     H21.328v-42.656v-21.344v-140.49l72.905-72.843h12.219c0,5.891,4.766,10.672,10.656,10.672c5.891,0,10.672-4.781,10.672-10.672     h21.328c0,5.891,4.781,10.672,10.672,10.672c5.89,0,10.671-4.781,10.671-10.672h21.328c0,5.891,4.781,10.672,10.672,10.672     s10.656-4.781,10.656-10.672h21.344c0,5.891,4.765,10.672,10.656,10.672s10.672-4.781,10.672-10.672h21.328     c0,5.891,4.781,10.672,10.671,10.672c5.891,0,10.656-4.781,10.656-10.672h42.905l-0.016,21.32l-0.016,21.351h0.016v160.005     c0,5.874,4.781,10.655,10.672,10.655s10.656-4.781,10.656-10.655v-74.678H463.93l26.718,14.405V277.342z" fill="#FFFFFF"/>
			<path d="M117.404,362.652c-5.89,0-10.671,4.781-10.671,10.688c0,5.875,4.781,10.656,10.671,10.656     c5.891,0,10.656-4.781,10.656-10.656C128.06,367.433,123.294,362.652,117.404,362.652z" fill="#FFFFFF"/>
			<path d="M415.991,362.652c-5.89,0-10.671,4.781-10.671,10.688c0,5.875,4.781,10.656,10.671,10.656     c5.891,0,10.656-4.781,10.656-10.656C426.647,367.433,421.882,362.652,415.991,362.652z" fill="#FFFFFF"/>
			<path d="M224.058,362.652c-5.891,0-10.656,4.781-10.656,10.688c0,5.875,4.766,10.656,10.656,10.656     c5.89,0,10.672-4.781,10.672-10.656C234.73,367.433,229.949,362.652,224.058,362.652z" fill="#FFFFFF"/>
			<path d="M245.401,160H234.73h-21.406c0-5.891-4.781-10.664-10.671-10.664h-21.406c-5.891,0-10.656,4.773-10.656,10.664h-21.343     h-10.656c-5.89,0-10.671,4.773-10.671,10.664s4.781,10.672,10.671,10.672h1.016l9.703,97.068     c0.547,5.438,5.125,9.593,10.609,9.593h64.139c5.484,0,10.078-4.155,10.625-9.593l9.703-97.068h1.016     c5.891,0,10.656-4.781,10.656-10.672S251.292,160,245.401,160z M214.417,266.662h-44.842l-8.531-85.326h61.905L214.417,266.662z" fill="#FFFFFF"/>
		</g>
	</g>
</g>
<g>
</g>
<g>
</g>
<g>
</g>
<g>
</g>
<g>
</g>
<g>
</g>
<g>
</g>
<g>
</g>
<g>
</g>
<g>
</g>
<g>
</g>
<g>
</g>
<g>
</g>
<g>
</g>
<g>
</g>
</svg>
