<?xml version="1.0" encoding="utf-8"?>
<!-- Generator: Adobe Illustrator 20.1.0, SVG Export Plug-In . SVG Version: 6.00 Build 0)  -->
<svg version="1.1" id="Capa_1" xmlns="http://www.w3.org/2000/svg" xmlns:xlink="http://www.w3.org/1999/xlink" x="0px" y="0px"
	 viewBox="0 0 512 512" style="enable-background:new 0 0 512 512;" xml:space="preserve">
<style type="text/css">
	.st0{fill:#FFFFFF;}
</style>
<g>
	<g>
		<path class="st0" d="M15.9,368.6c38.5,15.6,118.6,43.2,209.3,45.9c81.6,2.4,180.4-9.3,238.4-28.3c-47.6,30.3-43.2,41.8-217.1,51.7
			c-7.4,0-14.7-0.1-22-0.3c-85.6-2.5-160.6-25.6-204-42.2c25.6,31,89.2,89,211,96C348.8,498,449.9,426,499.8,382.5
			c19.2-16.8,15.6-20.2-9.2-14.2c-80.3,19.4-122.7-58.1-259-57.6C106.3,311.1,38.7,351.6,15.9,368.6z"/>
		<path class="st0" d="M449.6,337.3v-95.6c0-12.7-7.5-30.2-16.7-38.9L247.3,27c-9.3-8.8-24.4-8.9-33.9-0.4l-109.7,98.7v56.3H92.2
			V64.4C91.6,64.3,91,64,90.3,64H55.7c-6.4,0-11.5,5.2-11.5,11.5v99.3c0,1.2,0.3,2.3,0.7,3.4l-27.7,25C7.7,211.8,0,229,0,241.7v96.6
			c44.5-23.5,120-52.2,224.8-52.2C328.3,286.1,404.2,314.1,449.6,337.3z M235.8,124.7h50.5v50h-50.5V124.7L235.8,124.7z
			 M235.8,197.8h50.5v50h-50.5V197.8L235.8,197.8z M212.8,247.7h-49.5v-50h49.5V247.7L212.8,247.7z M212.8,174.7h-49.5v-50h49.5
			V174.7L212.8,174.7z"/>
	</g>
</g>
</svg>
